<svg width="283" height="39" viewBox="0 0 283 39" fill="none" xmlns="http://www.w3.org/2000/svg">
<path d="M264.142 26.4H270.462V5.99999H264.142V1.39999H276.382V26.4H282.702V31H264.142V26.4Z" fill="#FFFDFD"/>
<path d="M250.718 7.71999C249.384 7.71999 248.451 7.45333 247.918 6.91999C247.411 6.35999 247.158 5.69333 247.158 4.91999V3.75999C247.158 2.95999 247.411 2.29333 247.918 1.75999C248.451 1.22666 249.384 0.959991 250.718 0.959991C252.051 0.959991 252.971 1.22666 253.478 1.75999C254.011 2.29333 254.278 2.95999 254.278 3.75999V4.91999C254.278 5.69333 254.011 6.35999 253.478 6.91999C252.971 7.45333 252.051 7.71999 250.718 7.71999ZM241.198 26.4H247.758V14.96H241.198V10.36H253.678V26.4H259.758V31H241.198V26.4Z" fill="#FFFDFD"/>
<path d="M232.933 31C231.706 31 230.72 30.6933 229.973 30.08C229.226 29.44 228.786 28.5333 228.653 27.36H228.453C228.08 28.72 227.333 29.7467 226.213 30.44C225.12 31.1333 223.773 31.48 222.173 31.48C220.173 31.48 218.56 30.9467 217.333 29.88C216.133 28.7867 215.533 27.2667 215.533 25.32C215.533 23.16 216.32 21.56 217.893 20.52C219.466 19.48 221.773 18.96 224.813 18.96H228.133V17.92C228.133 16.6933 227.84 15.7733 227.253 15.16C226.693 14.52 225.733 14.2 224.373 14.2C223.12 14.2 222.106 14.44 221.333 14.92C220.56 15.4 219.893 16.0267 219.333 16.8L216.093 13.92C216.786 12.7467 217.866 11.7867 219.333 11.04C220.826 10.2667 222.733 9.88 225.053 9.88C227.88 9.88 230.08 10.5333 231.653 11.84C233.253 13.12 234.053 15.0667 234.053 17.68V26.72H236.333V31H232.933ZM224.413 27.6C225.453 27.6 226.333 27.3467 227.053 26.84C227.773 26.3333 228.133 25.6 228.133 24.64V22.16H224.973C222.546 22.16 221.333 22.9733 221.333 24.6V25.4C221.333 26.12 221.613 26.6667 222.173 27.04C222.733 27.4133 223.48 27.6 224.413 27.6Z" fill="#FFFDFD"/>
<path d="M203.069 31C200.935 31 199.349 30.44 198.309 29.32C197.269 28.2 196.749 26.7733 196.749 25.04V14.96H191.149V10.36H194.789C195.669 10.36 196.295 10.1867 196.669 9.83998C197.042 9.49332 197.229 8.85332 197.229 7.91998V3.07999H202.669V10.36H210.709V14.96H202.669V26.4H210.709V31H203.069Z" fill="#FFFDFD"/>
<path d="M178.044 31.48C174.578 31.48 171.951 30.52 170.164 28.6C168.378 26.68 167.484 24.0667 167.484 20.76C167.484 19.08 167.711 17.5733 168.164 16.24C168.644 14.88 169.311 13.7333 170.164 12.8C171.044 11.84 172.098 11.12 173.324 10.64C174.578 10.1333 175.978 9.88 177.524 9.88C179.071 9.88 180.458 10.1333 181.684 10.64C182.911 11.12 183.951 11.8133 184.804 12.72C185.658 13.6267 186.311 14.7333 186.764 16.04C187.244 17.32 187.484 18.76 187.484 20.36V22.12H173.364V22.48C173.364 23.8133 173.778 24.8933 174.604 25.72C175.431 26.52 176.644 26.92 178.244 26.92C179.471 26.92 180.524 26.6933 181.404 26.24C182.284 25.76 183.044 25.1333 183.684 24.36L186.884 27.84C186.084 28.8267 184.964 29.68 183.524 30.4C182.084 31.12 180.258 31.48 178.044 31.48ZM177.564 14.12C176.284 14.12 175.258 14.52 174.484 15.32C173.738 16.0933 173.364 17.1467 173.364 18.48V18.8H181.684V18.48C181.684 17.12 181.311 16.0533 180.564 15.28C179.844 14.5067 178.844 14.12 177.564 14.12Z" fill="#FFFDFD"/>
<path d="M144.06 3.07999H153.06C156.82 3.07999 159.607 4.27999 161.42 6.67999C163.233 9.07999 164.14 12.5333 164.14 17.04C164.14 21.5467 163.233 25 161.42 27.4C159.607 29.8 156.82 31 153.06 31H144.06V3.07999ZM152.66 26.28C154.447 26.28 155.753 25.7067 156.58 24.56C157.407 23.4133 157.82 21.7467 157.82 19.56V14.48C157.82 12.32 157.407 10.6667 156.58 9.51999C155.753 8.37332 154.447 7.79999 152.66 7.79999H149.98V26.28H152.66Z" fill="#FFFDFD"/>
<path d="M105.291 31.48C102.998 31.48 100.998 31.1333 99.2912 30.44C97.6112 29.7467 96.3446 28.8 95.4912 27.6L98.8112 24.52C99.6112 25.4 100.545 26.0933 101.611 26.6C102.705 27.08 103.945 27.32 105.331 27.32C106.505 27.32 107.425 27.1467 108.091 26.8C108.758 26.4267 109.091 25.8667 109.091 25.12C109.091 24.5333 108.865 24.1333 108.411 23.92C107.958 23.68 107.331 23.4933 106.531 23.36L103.211 22.84C102.278 22.7067 101.411 22.5067 100.611 22.24C99.8112 21.9467 99.1179 21.56 98.5312 21.08C97.9446 20.6 97.4779 20.0133 97.1312 19.32C96.7846 18.6267 96.6112 17.7867 96.6112 16.8C96.6112 14.64 97.4379 12.9467 99.0912 11.72C100.745 10.4933 103.065 9.88 106.051 9.88C108.078 9.88 109.798 10.16 111.211 10.72C112.651 11.2533 113.798 12.0267 114.651 13.04L111.691 16.4C111.078 15.7333 110.291 15.1733 109.331 14.72C108.371 14.2667 107.211 14.04 105.851 14.04C103.558 14.04 102.411 14.7333 102.411 16.12C102.411 16.7333 102.638 17.16 103.091 17.4C103.545 17.6133 104.171 17.7867 104.971 17.92L108.251 18.44C109.185 18.5733 110.051 18.7867 110.851 19.08C111.651 19.3467 112.345 19.72 112.931 20.2C113.545 20.68 114.025 21.2667 114.371 21.96C114.718 22.6533 114.891 23.4933 114.891 24.48C114.891 26.64 114.051 28.3467 112.371 29.6C110.718 30.8533 108.358 31.48 105.291 31.48Z" fill="#FFFDFD"/>
<path d="M86.7469 10.36H92.7869L83.0669 34.32C82.4536 35.84 81.6402 37 80.6269 37.8C79.6136 38.6 78.2269 39 76.4669 39H72.3869V34.4H77.3469L78.6269 30.88L70.3069 10.36H76.6669L79.6669 19.04L81.5469 25.04H81.8669L83.6669 19.04L86.7469 10.36Z" fill="#FFFDFD"/>
<path d="M48.1625 1.39999H54.0825V18.2H54.3625L57.1225 14.96L61.4425 10.36H68.2425L60.2425 18.52L69.0825 31H62.0425L56.0425 21.88L54.0825 23.84V31H48.1625V1.39999Z" fill="#FFFDFD"/>
<path d="M34.8581 7.71999C33.5248 7.71999 32.5915 7.45333 32.0581 6.91999C31.5515 6.35999 31.2981 5.69333 31.2981 4.91999V3.75999C31.2981 2.95999 31.5515 2.29333 32.0581 1.75999C32.5915 1.22666 33.5248 0.959991 34.8581 0.959991C36.1915 0.959991 37.1115 1.22666 37.6181 1.75999C38.1515 2.29333 38.4181 2.95999 38.4181 3.75999V4.91999C38.4181 5.69333 38.1515 6.35999 37.6181 6.91999C37.1115 7.45333 36.1915 7.71999 34.8581 7.71999ZM25.3381 26.4H31.8981V14.96H25.3381V10.36H37.8181V26.4H43.8981V31H25.3381V26.4Z" fill="#FFFDFD"/>
<path d="M0.633759 31V3.07999H11.4338C12.7938 3.07999 14.0071 3.29332 15.0738 3.71999C16.1404 4.11998 17.0338 4.70665 17.7538 5.47999C18.5004 6.25332 19.0604 7.18665 19.4338 8.27999C19.8071 9.37332 19.9938 10.6 19.9938 11.96C19.9938 13.32 19.8071 14.5467 19.4338 15.64C19.0604 16.7333 18.5004 17.6667 17.7538 18.44C17.0338 19.2133 16.1404 19.8133 15.0738 20.24C14.0071 20.64 12.7938 20.84 11.4338 20.84H6.67376V31H0.633759ZM6.67376 16H9.91376C11.3271 16 12.3004 15.7333 12.8338 15.2C13.3938 14.6667 13.6738 13.7867 13.6738 12.56V11.36C13.6738 10.1333 13.3938 9.25332 12.8338 8.71998C12.3004 8.18665 11.3271 7.91998 9.91376 7.91998H6.67376V16Z" fill="#FFFDFD"/>
</svg>
